<?xml version="1.0" encoding="UTF-8" standalone="no"?>
<!-- Created with Inkscape (http://www.inkscape.org/) -->

<svg
   xmlns:dc="http://purl.org/dc/elements/1.1/"
   xmlns:cc="http://creativecommons.org/ns#"
   xmlns:rdf="http://www.w3.org/1999/02/22-rdf-syntax-ns#"
   xmlns:svg="http://www.w3.org/2000/svg"
   xmlns="http://www.w3.org/2000/svg"
   xmlns:sodipodi="http://sodipodi.sourceforge.net/DTD/sodipodi-0.dtd"
   xmlns:inkscape="http://www.inkscape.org/namespaces/inkscape"
   width="132.29166mm"
   height="48.005661mm"
   viewBox="0 0 132.29166 48.005662"
   version="1.1"
   id="svg8"
   inkscape:version="0.92.1 r15371"
   sodipodi:docname="logo_master.svg">
  <defs
     id="defs2" />
  <sodipodi:namedview
     id="base"
     pagecolor="#ffffff"
     bordercolor="#666666"
     borderopacity="1.0"
     inkscape:pageopacity="0.0"
     inkscape:pageshadow="2"
     inkscape:zoom="1.979899"
     inkscape:cx="69.363324"
     inkscape:cy="117.27824"
     inkscape:document-units="mm"
     inkscape:current-layer="layer1"
     showgrid="false"
     fit-margin-top="0"
     fit-margin-left="0"
     fit-margin-right="0"
     fit-margin-bottom="0"
     inkscape:window-width="2560"
     inkscape:window-height="1017"
     inkscape:window-x="1912"
     inkscape:window-y="-8"
     inkscape:window-maximized="1" />
  <metadata
     id="metadata5">
    <rdf:RDF>
      <cc:Work
         rdf:about="">
        <dc:format>image/svg+xml</dc:format>
        <dc:type
           rdf:resource="http://purl.org/dc/dcmitype/StillImage" />
        <dc:title></dc:title>
      </cc:Work>
    </rdf:RDF>
  </metadata>
  <g
     inkscape:label="Layer 1"
     inkscape:groupmode="layer"
     id="layer1"
     transform="translate(-57.73994,-52.042114)">
    <g
       id="g5181"
       transform="matrix(1.2647697,0,0,1.2647697,-15.287789,-26.489624)"
       style="stroke-width:0.79065782">
      <g
         id="g5161"
         style="stroke-width:0.79065782">
        <path
           inkscape:connector-curvature="0"
           id="path4529"
           style="font-style:normal;font-variant:normal;font-weight:normal;font-stretch:normal;font-size:medium;line-height:1.25;font-family:Pacifico;-inkscape-font-specification:Pacifico;letter-spacing:0px;word-spacing:0px;fill:#4cbf4b;fill-opacity:1;stroke:none;stroke-width:0.20919484"
           d="m 75.392942,69.008984 q 0,0.762 -0.3302,1.143 -0.3048,0.381 -1.016,0.381 -0.0508,0.5334 -0.2286,1.8542 -0.254,1.778 -0.2794,1.9812 -2.2606,16.8402 -9.4234,16.8402 -2.1082,0 -3.302,-1.1938 -1.1684,-1.1938 -1.1684,-2.9972 0,-3.2258 2.7432,-5.6896 2.7432,-2.4892 7.2136,-4.1148 0.2794,-1.8034 0.4318,-3.2258 l 0.4572,-3.8354 q -1.524,-0.1524 -2.8448,-0.1524 -3.5306,0 -5.207,0.6858 -1.6764,0.6858 -1.6764,2.2352 0,0.762 0.508,1.651 0.1524,0.254 0.1524,0.5334 0,0.5334 -0.5588,0.9652 -0.5334,0.4064 -1.1684,0.4064 -0.8128,0 -1.2446,-0.6858 -0.7112,-1.1684 -0.7112,-2.7178 0,-6.096 10.668,-6.096 3.0988,0 5.5372,0.6096 1.4478,0.3556 1.4478,1.4224 z m -10.9474,19.4818 q 1.2446,0 2.4892,-1.8796 1.2446,-1.8796 2.1844,-6.5786 -6.1976,2.7178 -6.1976,6.6548 0,0.8636 0.4064,1.3462 0.4064,0.4572 1.1176,0.4572 z" />
        <path
           inkscape:connector-curvature="0"
           id="path4531"
           style="font-style:normal;font-variant:normal;font-weight:normal;font-stretch:normal;font-size:medium;line-height:1.25;font-family:Pacifico;-inkscape-font-specification:Pacifico;letter-spacing:0px;word-spacing:0px;fill:#4cbf4b;fill-opacity:1;stroke:none;stroke-width:0.20919484"
           d="m 77.605917,88.617784 q -1.143,0 -1.8796,-1.0414 -0.7112,-1.0668 -0.7112,-2.6416 0,-1.905 0.254,-3.4798 0.254,-1.6002 0.8382,-3.3782 0.254,-0.762 0.7112,-1.0922 0.4572,-0.3302 1.4478,-0.3302 0.5588,0 0.762,0.1778 0.2286,0.1778 0.2286,0.5334 0,0.2032 -0.2794,1.3716 -0.254,0.9398 -0.4064,1.7018 -0.508,2.667 -0.508,3.556 0,0.5334 0.127,0.762 0.127,0.2032 0.4064,0.2032 0.381,0 0.9398,-0.762 0.5842,-0.762 1.2192,-2.3114 0.6604,-1.5494 1.27,-3.81 0.2032,-0.762 0.6096,-1.0922 0.4318,-0.3302 1.27,-0.3302 0.5842,0 0.8128,0.1524 0.2286,0.127 0.2286,0.508 0,0.635 -0.635,3.4798 -0.7112,3.2512 -0.7112,4.0132 0,0.4826 0.2032,0.762 0.2032,0.254 0.5334,0.254 0.508,0 1.1938,-0.6096 0.7112,-0.635 1.8796,-2.032 0.3048,-0.3556 0.6858,-0.3556 0.3302,0 0.508,0.3048 0.2032,0.3048 0.2032,0.8382 0,1.016 -0.4826,1.5748 -1.0922,1.3462 -2.3622,2.2098 -1.2446,0.8636 -2.8448,0.8636 -1.2192,0 -1.8034,-0.9398 -0.5588,-0.9398 -0.5588,-2.6416 -0.4318,1.7272 -1.2954,2.667 -0.8636,0.9144 -1.8542,0.9144 z" />
        <path
           inkscape:connector-curvature="0"
           id="path4533"
           style="font-style:normal;font-variant:normal;font-weight:normal;font-stretch:normal;font-size:medium;line-height:1.25;font-family:Pacifico;-inkscape-font-specification:Pacifico;letter-spacing:0px;word-spacing:0px;fill:#4cbf4b;fill-opacity:1;stroke:none;stroke-width:0.20919484"
           d="m 88.575939,88.617784 q -0.9652,0 -1.3716,-1.016 -0.381,-1.016 -0.381,-3.2512 0,-3.302 0.9398,-6.2738 0.2286,-0.7366 0.7366,-1.0668 0.5334,-0.3556 1.4732,-0.3556 0.508,0 0.7112,0.127 0.2032,0.127 0.2032,0.4826 0,0.4064 -0.381,1.8288 -0.254,1.016 -0.4064,1.778 -0.1524,0.762 -0.254,1.8796 0.8382,-2.1844 1.8796,-3.556 1.0414,-1.3716 2.032,-1.9558 1.016,-0.5842 1.8542,-0.5842 1.651,0 1.651,1.651 0,0.9906 -0.5588,3.5814 -0.4826,2.2098 -0.4826,2.921 0,1.016 0.7366,1.016 0.508,0 1.1938,-0.6096 0.7112,-0.635 1.879601,-2.032 0.3048,-0.3556 0.6858,-0.3556 0.3302,0 0.508,0.3048 0.2032,0.3048 0.2032,0.8382 0,1.016 -0.4826,1.5748 -1.092201,1.3462 -2.362201,2.2098 -1.2446,0.8636 -2.8448,0.8636 -1.2954,0 -1.9558,-0.7366 -0.6604,-0.762 -0.6604,-2.1844 0,-0.7112 0.3556,-2.54 0.3302,-1.6002 0.3302,-2.2098 0,-0.4064 -0.2794,-0.4064 -0.3302,0 -0.9398,0.8636 -0.5842,0.8382 -1.2192,2.2352 -0.6096,1.397 -0.9906,2.9464 -0.2794,1.1938 -0.6604,1.6256 -0.3556,0.4064 -1.143,0.4064 z" />
        <path
           inkscape:connector-curvature="0"
           id="path4535"
           style="font-style:normal;font-variant:normal;font-weight:normal;font-stretch:normal;font-size:medium;line-height:1.25;font-family:Pacifico;-inkscape-font-specification:Pacifico;letter-spacing:0px;word-spacing:0px;fill:#4cbf4b;fill-opacity:1;stroke:none;stroke-width:0.20919484"
           d="m 112.37812,82.877384 q 0.3302,0 0.508,0.3302 0.2032,0.3048 0.2032,0.7874 0,0.5842 -0.1778,0.9144 -0.1778,0.3302 -0.5588,0.5842 -2.1844,1.4732 -3.2004,2.1844 l -1.6256,1.0922 q -0.9652,5.2578 -2.54,8.255 -1.5494,3.022596 -3.9624,3.022596 -1.295399,0 -2.108199,-0.812796 -0.8128,-0.7874 -0.8128,-2.0828 0,-1.8034 1.4224,-3.8862 1.422399,-2.0574 5.333999,-5.08 l 0.1524,-0.9906 q -0.4318,0.6858 -1.143,1.0668 -0.6858,0.3556 -1.3716,0.3556 -1.5748,0 -2.514599,-1.143 -0.9398,-1.143 -0.9398,-2.9972 0,-2.032 0.9398,-3.8354 0.939799,-1.8288 2.489199,-2.921 1.5748,-1.1176 3.3274,-1.1176 0.5588,0 0.7366,0.2286 0.2032,0.2032 0.3302,0.762 0.4826,-0.1016 1.1176,-0.1016 0.635,0 0.889,0.2032 0.2794,0.1778 0.2794,0.7366 0,0.3048 -0.0254,0.4826 -0.1016,0.7874 -0.635,3.9878 -0.1016,0.6096 -0.2286,1.3462 -0.1016,0.7112 -0.2286,1.524 1.9558,-1.524 3.7592,-2.6924 0.3302,-0.2032 0.5842,-0.2032 z m -8.9662,3.175 q 0.5842,0 1.1176,-0.7112 0.5334,-0.7112 0.762,-2.032 l 0.8128,-4.3434 q -1.0414,0.0254 -1.9304,0.8128 -0.889,0.762 -1.4224,2.032 -0.5334,1.27 -0.5334,2.6924 0,0.7874 0.3048,1.1684 0.3302,0.381 0.889,0.381 z m -2.1082,11.5316 q 0.635,0 1.4224,-1.524 0.8128,-1.524 1.5494,-4.8514 -1.9558,1.6764 -2.8194,3.0226 -0.8636,1.3462 -0.8636,2.3622 0,0.4318 0.1524,0.7112 0.1778,0.2794 0.5588,0.2794 z" />
        <path
           inkscape:connector-curvature="0"
           id="path4537"
           style="font-style:normal;font-variant:normal;font-weight:normal;font-stretch:normal;font-size:medium;line-height:1.25;font-family:Pacifico;-inkscape-font-specification:Pacifico;letter-spacing:0px;word-spacing:0px;fill:#4cbf4b;fill-opacity:1;stroke:none;stroke-width:0.20919484"
           d="m 121.15422,82.826584 q 0.3302,0 0.508,0.3048 0.2032,0.3048 0.2032,0.8382 0,1.016 -0.4826,1.5748 -1.0922,1.3462 -2.3876,2.2098 -1.27,0.8636 -2.8956,0.8636 -2.2352,0 -3.3274,-2.032 -1.0668,-2.032 -1.0668,-5.2578 0,-3.0988 0.7874,-7.0612 0.8128,-3.9624 2.3622,-6.8072 1.5748,-2.8448 3.7338,-2.8448 1.2192,0 1.905,1.143 0.7112,1.1176 0.7112,3.2258 0,3.0226 -1.6764,7.0104 -1.6764,3.9878 -4.5466,7.8994 0.1778,1.0414 0.5842,1.4986 0.4064,0.4318 1.0668,0.4318 1.0414,0 1.8288,-0.5842 0.7874,-0.6096 2.0066,-2.0574 0.3048,-0.3556 0.6858,-0.3556 z m -3.1242,-15.6972 q -0.5842,0 -1.3208,2.1082 -0.7366,2.1082 -1.2954,5.2324 -0.5588,3.1242 -0.6096,5.9944 1.8034,-2.9718 2.8702,-5.9436 1.0668,-2.9972 1.0668,-5.461 0,-1.9304 -0.7112,-1.9304 z" />
        <path
           style="font-style:normal;font-variant:normal;font-weight:normal;font-stretch:normal;font-size:medium;line-height:1.25;font-family:Pacifico;-inkscape-font-specification:Pacifico;letter-spacing:0px;word-spacing:0px;fill:#4cbf4b;fill-opacity:1;stroke:none;stroke-width:0.7906577"
           d="m 473.08984,289.7168 c -4.16001,0 -7.90443,1.12132 -11.23242,3.36132 -3.264,2.24001 -5.82367,5.27915 -7.67969,9.11915 -1.85601,3.776 -2.7832,7.87306 -2.7832,12.28906 0,6.272 1.69588,11.26261 5.08789,14.97461 3.39201,3.648 8.16069,5.47265 14.30469,5.47265 4.032,0 7.19796,-1.06472 10.38281,-2.17773 1.89622,-0.64361 9.07464,-2.87663 14.87696,-5.14844 v -11.02734 c -10.07465,4.65433 -14.46293,6.49056 -17.03126,7.41992 -2.02114,0.72493 -4.16504,1.33398 -6.78906,1.33398 -3.648,0 -6.24134,-1.47201 -7.77734,-4.41601 7.61601,-1.856 12.99292,-4.35228 16.1289,-7.48828 3.20002,-3.2 4.80079,-7.00783 4.80079,-11.42383 0,-3.776 -1.12132,-6.75174 -3.36133,-8.92774 -2.24001,-2.24 -5.21575,-3.36132 -8.92774,-3.36132 z m -1.63086,9.4082 c 1.152,0 2.04752,0.38434 2.6875,1.15234 0.70413,0.70401 1.05664,1.66486 1.05664,2.88086 0,2.368 -1.08963,4.44629 -3.26562,6.23828 -2.17599,1.792 -5.15172,3.13721 -8.92773,4.03321 v -0.19141 c 0,-3.904 0.8004,-7.23238 2.40039,-9.98437 1.66401,-2.752 3.68084,-4.12891 6.04882,-4.12891 z"
           transform="scale(0.26458333)"
           id="path4539"
           inkscape:connector-curvature="0"
           sodipodi:nodetypes="sccscsccccsccscsscsccscs" />
      </g>
      <g
         id="g5167"
         style="stroke-width:0.79065782">
        <path
           style="opacity:1;fill:#fbdd11;fill-opacity:1;stroke:none;stroke-width:0.59766257;stroke-miterlimit:4;stroke-dasharray:none;stroke-opacity:1"
           d="m 568.2832,234.68164 c -4.08378,0.0789 -8.64096,1.26831 -13.22265,4.43359 -1.30326,0.90043 -5.50303,4.80239 -6.43555,12.18946 -1.98297,-4.58341 -5.77344,-9.32286 -12.53906,-12.26953 -2.0818,-0.9067 -12.5374,-3.62723 -23.01758,8.04296 -3.23112,3.59757 5.43965,5.58617 7.52734,4.72657 4.99102,-2.05498 11.91772,-4.02954 14.77735,-2.40821 1.47636,0.83724 5.13358,11.06094 10.29687,13.94336 0.14325,0.0801 0.29633,0.15812 0.44531,0.23828 h -30.58789 c -10.7921,0 -19.48046,8.69033 -19.48046,19.48243 v 44.66601 c 0,10.79211 8.68836,19.48047 19.48046,19.48047 h 78.55078 c 10.79211,0 19.48047,-8.68836 19.48047,-19.48047 v -44.66601 c 0,-10.7921 -8.68836,-19.48243 -19.48047,-19.48243 h -40.02148 c 1.80393,-1.27243 3.49793,-3.44223 3.68555,-4.56835 0.88543,-5.32409 2.8605,-12.24954 5.74609,-13.82422 1.49019,-0.81231 12.10345,1.47246 17.27539,-1.39453 1.12411,-0.62291 2.41213,-1.35989 2.79492,-2.69141 0.39855,-1.38649 -6.29107,-6.59143 -15.27539,-6.41797 z m -52.9082,35.49805 h 78.85547 c 7.04611,0 12.71875,5.67264 12.71875,12.71875 v 44.95703 c 0,7.04611 -5.67264,12.7168 -12.71875,12.7168 H 515.375 c -7.04611,0 -12.71875,-5.67069 -12.71875,-12.7168 v -44.95703 c 0,-7.04611 5.67264,-12.71875 12.71875,-12.71875 z"
           transform="scale(0.26458333)"
           id="rect4493"
           inkscape:connector-curvature="0" />
        <g
           aria-label="TV"
           style="font-style:normal;font-variant:normal;font-weight:normal;font-stretch:normal;font-size:25.39999962px;line-height:1.25;font-family:Pacifico;-inkscape-font-specification:Pacifico;letter-spacing:1.32291663px;word-spacing:0px;fill:#7c1ced;fill-opacity:1;stroke:none;stroke-width:0.29311898"
           id="text4491"
           transform="matrix(0.71368582,0,0,0.71368582,37.577515,25.53546)">
          <path
             d="m 150.2822,70.117246 q -2.01538,0.08613 -4.90926,0.310058 l 0.15503,7.165799 -0.39618,10.869276 -3.84128,0.310059 -0.20671,-18.190105 q -1.49862,0.03445 -2.7733,0.103353 -1.25746,0.0689 -2.13596,0.0689 l 0.31006,-3.737928 q 5.96001,-0.775147 13.34974,-0.775147 z"
             style="font-style:normal;font-variant:normal;font-weight:normal;font-stretch:normal;font-size:35.27777863px;font-family:'Passero One';-inkscape-font-specification:'Passero One';letter-spacing:1.32291663px;fill:#7c1ced;fill-opacity:1;stroke-width:0.29311898"
             id="path4542"
             inkscape:connector-curvature="0" />
          <path
             d="m 156.23878,79.505131 -2.96279,-12.143962 4.37527,-1.25746 2.66995,13.229167 0.70625,5.59828 0.99908,-0.103352 q 0,0 1.75699,-9.112278 0.86128,-4.633654 1.65365,-9.611817 l 4.44417,1.119656 -0.63734,2.790528 q -0.1378,0.637342 -0.39618,1.705322 -2.32544,9.456787 -2.75608,11.075982 0,0 -0.75792,2.738851 -0.70625,2.583822 -0.93018,2.928331 0,0 -3.06613,0.189481 -1.46417,0.08613 -2.96279,0.08613 z"
             style="font-style:normal;font-variant:normal;font-weight:normal;font-stretch:normal;font-size:35.27777863px;font-family:'Passero One';-inkscape-font-specification:'Passero One';letter-spacing:1.32291663px;fill:#7c1ced;fill-opacity:1;stroke-width:0.29311898"
             id="path4544"
             inkscape:connector-curvature="0" />
        </g>
      </g>
    </g>
  </g>
</svg>
