<svg xmlns="http://www.w3.org/2000/svg" viewBox="0 0 375 137" fill-rule="evenodd" stroke-linejoin="round" stroke-miterlimit="2" xmlns:v="https://vecta.io/nano"><path d="M371.026 46.451c0-7.663-6.222-13.885-13.886-13.885h-74.774c-7.663 0-13.885 6.222-13.885 13.885v42.182c0 7.664 6.222 13.885 13.885 13.885h74.774c7.664 0 13.886-6.221 13.886-13.885V46.451z" fill="#fff"/><g fill-rule="nonzero"><path d="M332.053.004c-3.872.075-8.195 1.203-12.542 4.206-1.235.854-5.22 4.555-6.104 11.563-1.881-4.348-5.478-8.843-11.896-11.639-1.974-.86-11.89-3.441-21.832 7.629-3.065 3.413 5.16 5.299 7.138 4.483 4.735-1.949 11.307-3.822 14.018-2.284 1.402.794 4.869 10.492 9.768 13.226l.422.226h-29.013a18.44 18.44 0 0 0-18.479 18.48v42.369a18.44 18.44 0 0 0 18.479 18.479h74.51A18.44 18.44 0 0 0 375 88.264V45.895a18.44 18.44 0 0 0-18.479-18.48h-37.965c1.713-1.207 3.32-3.265 3.497-4.334.84-5.05 2.714-11.62 5.451-13.113 1.412-.77 11.481 1.397 16.387-1.323 1.067-.591 2.289-1.29 2.65-2.553.378-1.315-5.967-6.252-14.49-6.088zm-50.189 33.673h74.801a12.04 12.04 0 0 1 12.067 12.065v42.645a12.04 12.04 0 0 1-12.067 12.063h-74.801A12.04 12.04 0 0 1 269.8 88.387V45.741a12.04 12.04 0 0 1 12.064-12.065z" fill="#fbdd11"/><g fill="#4cbf4b"><path d="M63.289 24.8c0 1.821-.395 3.187-1.184 4.098-.729.911-1.943 1.366-3.643 1.366l-.82 6.648-1.002 7.103c-5.403 40.25-16.665 60.375-33.785 60.375-5.039 0-8.985-1.427-11.838-4.28-2.793-2.853-4.189-6.435-4.189-10.745 0-7.71 3.278-14.509 9.835-20.398C23.22 63.018 31.84 58.1 42.525 54.215c.668-4.31 1.184-8.165 1.548-11.565l1.639-13.751c-3.643-.364-7.042-.546-10.199-.546-8.439 0-14.661.82-18.668 2.459s-6.01 4.31-6.01 8.014c0 1.821.607 3.794 1.821 5.919.364.607.546 1.245.546 1.912 0 1.275-.668 2.428-2.003 3.46-1.275.971-2.671 1.457-4.189 1.457-1.943 0-3.43-.82-4.462-2.459C.85 46.321 0 43.073 0 39.37 0 24.8 12.749 17.514 38.247 17.514c7.406 0 14.024.729 19.852 2.186 3.46.85 5.191 2.55 5.191 5.1zM24.041 94.645c2.975 0 5.949-2.246 8.924-6.739s5.585-12.354 7.831-23.585C25.983 70.817 18.577 78.77 18.577 88.18c0 2.064.486 3.673 1.457 4.826.971 1.093 2.307 1.639 4.007 1.639zm47.182.456c-2.732 0-4.978-1.245-6.739-3.734-1.7-2.55-2.55-5.707-2.55-9.471 0-4.553.304-8.712.911-12.476.607-3.825 1.609-7.862 3.005-12.111.607-1.821 1.457-3.127 2.55-3.916s2.823-1.184 5.191-1.184c1.336 0 2.246.212 2.732.637.546.425.82 1.062.82 1.912 0 .486-.334 2.125-1.002 4.917-.607 2.246-1.093 4.28-1.457 6.101-1.214 6.374-1.821 10.624-1.821 12.749 0 1.275.152 2.186.455 2.732.304.486.789.729 1.457.729.911 0 2.034-.911 3.369-2.732 1.396-1.821 2.853-4.584 4.371-8.287 1.578-3.703 3.096-8.256 4.553-13.66.486-1.821 1.214-3.127 2.186-3.916 1.032-.789 2.55-1.184 4.553-1.184 1.396 0 2.368.182 2.914.546.546.304.82.911.82 1.821 0 1.518-.759 5.676-2.277 12.476-1.7 7.771-2.55 12.567-2.55 14.388 0 1.153.243 2.064.729 2.732a2.33 2.33 0 0 0 1.912.911c1.214 0 2.641-.729 4.28-2.186 1.7-1.518 3.946-3.946 6.739-7.285.729-.85 1.548-1.275 2.459-1.275.789 0 1.396.364 1.821 1.093.486.729.729 1.73.729 3.005 0 2.428-.577 4.31-1.73 5.646-2.61 3.218-5.433 5.858-8.469 7.923-2.975 2.064-6.374 3.096-10.199 3.096-2.914 0-5.069-1.123-6.466-3.369-1.336-2.246-2.003-5.403-2.003-9.471-1.032 4.128-2.58 7.315-4.644 9.562-2.064 2.186-4.28 3.278-6.648 3.278z"/><path d="M110.552 95.101c-2.307 0-3.946-1.214-4.917-3.643-.911-2.428-1.366-6.314-1.366-11.656 0-7.892 1.123-15.39 3.369-22.493.546-1.761 1.427-3.035 2.641-3.825 1.275-.85 3.035-1.275 5.282-1.275 1.214 0 2.064.152 2.55.455s.729.88.729 1.73c0 .971-.455 3.157-1.366 6.557-.607 2.428-1.093 4.553-1.457 6.374s-.668 4.068-.911 6.739c2.003-5.221 4.25-9.471 6.739-12.749s4.917-5.616 7.285-7.012c2.428-1.396 4.644-2.094 6.648-2.094 3.946 0 5.919 1.973 5.919 5.919 0 2.368-.668 6.648-2.003 12.84-1.153 5.282-1.73 8.772-1.73 10.472 0 2.428.88 3.643 2.641 3.643 1.214 0 2.641-.729 4.28-2.186 1.7-1.518 3.946-3.946 6.739-7.285.729-.85 1.548-1.275 2.459-1.275.789 0 1.396.364 1.821 1.093.486.729.729 1.73.729 3.005 0 2.428-.577 4.31-1.73 5.646-2.61 3.218-5.433 5.858-8.469 7.923-2.975 2.064-6.374 3.096-10.199 3.096-3.096 0-5.433-.88-7.012-2.641-1.578-1.821-2.368-4.432-2.368-7.831 0-1.7.425-4.735 1.275-9.106.789-3.825 1.184-6.466 1.184-7.923 0-.971-.334-1.457-1.002-1.457-.789 0-1.912 1.032-3.369 3.096-1.396 2.003-2.853 4.675-4.371 8.014-1.457 3.339-2.641 6.86-3.551 10.563-.668 2.853-1.457 4.796-2.368 5.828-.85.971-2.216 1.457-4.098 1.457z"/><path d="M195.888 74.52c.789 0 1.396.395 1.821 1.184.486.729.729 1.669.729 2.823 0 1.396-.212 2.489-.637 3.278s-1.093 1.487-2.003 2.094l-11.474 7.831-5.828 3.916c-2.307 12.567-5.342 22.432-9.106 29.596-3.703 7.224-8.439 10.837-14.206 10.837-3.096 0-5.616-.971-7.558-2.914-1.943-1.882-2.914-4.371-2.914-7.467 0-4.31 1.7-8.955 5.1-13.933 3.4-4.917 9.774-10.988 19.123-18.213l.546-3.551c-1.032 1.639-2.398 2.914-4.098 3.825-1.639.85-3.278 1.275-4.917 1.275-3.764 0-6.769-1.366-9.015-4.098s-3.369-6.314-3.369-10.745a29.33 29.33 0 0 1 3.369-13.751c2.246-4.371 5.221-7.862 8.924-10.472 3.764-2.671 7.74-4.007 11.929-4.007 1.336 0 2.216.273 2.641.82.486.486.88 1.396 1.184 2.732 1.153-.243 2.489-.364 4.007-.364s2.58.243 3.187.729c.668.425 1.002 1.305 1.002 2.641 0 .729-.03 1.305-.091 1.73-.243 1.882-1.002 6.648-2.277 14.297l-.82 4.826-.82 5.464c4.675-3.643 9.167-6.86 13.477-9.653.789-.486 1.487-.729 2.094-.729zm-32.145 11.383c1.396 0 2.732-.85 4.007-2.55s2.186-4.128 2.732-7.285l2.914-15.572c-2.489.061-4.796 1.032-6.921 2.914-2.125 1.821-3.825 4.25-5.1 7.285s-1.912 6.253-1.912 9.653c0 1.882.364 3.278 1.093 4.189.789.911 1.852 1.366 3.187 1.366zm-7.558 41.343c1.518 0 3.218-1.821 5.1-5.464 1.943-3.643 3.794-9.44 5.555-17.393-4.675 4.007-8.044 7.619-10.108 10.837s-3.096 6.041-3.096 8.469c0 1.032.182 1.882.546 2.55.425.668 1.093 1.002 2.003 1.002z"/><path d="M227.351 74.338c.789 0 1.396.364 1.821 1.093.486.729.729 1.73.729 3.005 0 2.428-.577 4.31-1.73 5.646-2.61 3.218-5.464 5.858-8.56 7.923-3.035 2.064-6.496 3.096-10.381 3.096-5.342 0-9.319-2.428-11.929-7.285-2.55-4.857-3.825-11.14-3.825-18.85 0-7.406.941-15.845 2.823-25.316 1.943-9.471 4.766-17.606 8.469-24.405 3.764-6.799 8.226-10.199 13.386-10.199 2.914 0 5.191 1.366 6.83 4.098 1.7 2.671 2.55 6.526 2.55 11.565 0 7.224-2.003 15.602-6.01 25.134s-9.44 18.972-16.3 28.321c.425 2.489 1.123 4.28 2.094 5.373.971 1.032 2.246 1.548 3.825 1.548 2.489 0 4.675-.698 6.557-2.094 1.882-1.457 4.28-3.916 7.194-7.376.729-.85 1.548-1.275 2.459-1.275zM216.15 18.061c-1.396 0-2.975 2.519-4.735 7.558s-3.309 11.292-4.644 18.759-2.064 14.631-2.186 21.491c4.31-7.103 7.74-14.206 10.29-21.309 2.55-7.164 3.825-13.69 3.825-19.579 0-4.614-.85-6.921-2.55-6.921z"/><path d="M241.754 52.209c-3.945 0-7.496 1.064-10.655 3.189-3.095 2.125-5.525 5.008-7.285 8.65-1.76 3.582-2.64 7.468-2.64 11.657 0 5.95 1.61 10.684 4.829 14.205 3.216 3.46 7.74 5.191 13.57 5.191 3.822 0 6.827-1.01 9.848-2.066 1.797-.61 8.607-2.729 14.112-4.884v-10.46c-9.557 4.415-13.72 6.157-16.156 7.038-1.917.688-3.952 1.266-6.438 1.266-3.463 0-5.923-1.396-7.379-4.189 7.225-1.761 12.325-4.128 15.3-7.103 3.035-3.035 4.554-6.648 4.554-10.836 0-3.582-1.064-6.405-3.189-8.469-2.125-2.125-4.949-3.189-8.47-3.189zm-1.546 8.924c1.091 0 1.941.365 2.55 1.093.666.668 1.001 1.579 1.001 2.733 0 2.246-1.034 4.218-3.095 5.917s-4.889 2.976-8.47 3.826v-.181c0-3.703.76-6.861 2.276-9.471 1.579-2.611 3.494-3.917 5.739-3.917z"/></g><path d="M312.24 48.348c-3.438.146-7.625.411-12.561.793l.396 18.335-1.014 27.811-9.828.793-.529-46.542c-2.556.059-4.922.147-7.097.264-2.145.117-3.966.176-5.465.176l.793-9.564c10.167-1.321 21.553-1.983 34.158-1.983l1.146 9.917zm15.241 24.02L319.9 41.296l11.195-3.217 6.832 33.849 1.807 14.324 2.556-.264 4.495-23.315 4.232-24.594 11.371 2.864-1.63 7.141-1.014 4.363-7.052 28.34-1.939 7.008-2.38 7.492-7.845.486a129.7 129.7 0 0 1-7.581.22l-5.465-23.624z" fill="#7c1ced"/></g></svg>