<svg xmlns="http://www.w3.org/2000/svg" width="500.001" height="181.44" viewBox="0 0 132.292 48.006" xmlns:v="https://vecta.io/nano"><g transform="matrix(1.26477 0 0 1.26477 -73.027729 -78.531738)"><g fill="#4cbf4b"><path d="M75.393 69.009q0 .762-.33 1.143-.305.381-1.016.381-.051.533-.229 1.854-.254 1.778-.279 1.981-2.261 16.84-9.423 16.84-2.108 0-3.302-1.194-1.168-1.194-1.168-2.997 0-3.226 2.743-5.69 2.743-2.489 7.214-4.115.279-1.803.432-3.226l.457-3.835Q68.967 70 67.646 70q-3.531 0-5.207.686-1.676.686-1.676 2.235 0 .762.508 1.651.152.254.152.533 0 .533-.559.965-.533.406-1.168.406-.813 0-1.245-.686-.711-1.168-.711-2.718 0-6.096 10.668-6.096 3.099 0 5.537.61 1.448.356 1.448 1.422zM64.446 88.491q1.245 0 2.489-1.88 1.245-1.88 2.184-6.579-6.198 2.718-6.198 6.655 0 .864.406 1.346.406.457 1.118.457zm13.16.127q-1.143 0-1.88-1.041-.711-1.067-.711-2.642 0-1.905.254-3.48.254-1.6.838-3.378.254-.762.711-1.092.457-.33 1.448-.33.559 0 .762.178.229.178.229.533 0 .203-.279 1.372-.254.94-.406 1.702-.508 2.667-.508 3.556 0 .533.127.762.127.203.406.203.381 0 .94-.762.584-.762 1.219-2.311.66-1.549 1.27-3.81.203-.762.61-1.092.432-.33 1.27-.33.584 0 .813.152.229.127.229.508 0 .635-.635 3.48-.711 3.251-.711 4.013 0 .483.203.762.203.254.533.254.508 0 1.194-.61.711-.635 1.88-2.032.305-.356.686-.356.33 0 .508.305.203.305.203.838 0 1.016-.483 1.575-1.092 1.346-2.362 2.21-1.245.864-2.845.864-1.219 0-1.803-.94-.559-.94-.559-2.642-.432 1.727-1.295 2.667-.864.914-1.854.914z"/><path d="M88.576 88.618q-.965 0-1.372-1.016-.381-1.016-.381-3.251 0-3.302.94-6.274.229-.737.737-1.067.533-.356 1.473-.356.508 0 .711.127.203.127.203.483 0 .406-.381 1.829-.254 1.016-.406 1.778-.152.762-.254 1.88.838-2.184 1.88-3.556 1.041-1.372 2.032-1.956 1.016-.584 1.854-.584 1.651 0 1.651 1.651 0 .991-.559 3.581-.483 2.21-.483 2.921 0 1.016.737 1.016.508 0 1.194-.61.711-.635 1.88-2.032.305-.356.686-.356.33 0 .508.305.203.305.203.838 0 1.016-.483 1.575-1.092 1.346-2.362 2.21-1.245.864-2.845.864-1.295 0-1.956-.737-.66-.762-.66-2.184 0-.711.356-2.54.33-1.6.33-2.21 0-.406-.279-.406-.33 0-.94.864-.584.838-1.219 2.235-.61 1.397-.991 2.946-.279 1.194-.66 1.626-.356.406-1.143.406z"/><path d="M112.378 82.877q.33 0 .508.33.203.305.203.787 0 .584-.178.914-.178.33-.559.584-2.184 1.473-3.2 2.184l-1.626 1.092q-.965 5.258-2.54 8.255-1.549 3.023-3.962 3.023-1.295 0-2.108-.813-.813-.787-.813-2.083 0-1.803 1.422-3.886 1.422-2.057 5.334-5.08l.152-.991q-.432.686-1.143 1.067-.686.356-1.372.356-1.575 0-2.515-1.143-.94-1.143-.94-2.997 0-2.032.94-3.835.94-1.829 2.489-2.921 1.575-1.118 3.327-1.118.559 0 .737.229.203.203.33.762.483-.102 1.118-.102.635 0 .889.203.279.178.279.737 0 .305-.025.483-.102.787-.635 3.988-.102.61-.229 1.346-.102.711-.229 1.524 1.956-1.524 3.759-2.692.33-.203.584-.203zm-8.966 3.175q.584 0 1.118-.711.533-.711.762-2.032l.813-4.343q-1.041.025-1.93.813-.889.762-1.422 2.032-.533 1.27-.533 2.692 0 .787.305 1.168.33.381.889.381zm-2.108 11.532q.635 0 1.422-1.524.813-1.524 1.549-4.851-1.956 1.676-2.819 3.023-.864 1.346-.864 2.362 0 .432.152.711.178.279.559.279z"/><path d="M121.154 82.827q.33 0 .508.305.203.305.203.838 0 1.016-.483 1.575-1.092 1.346-2.388 2.21-1.27.864-2.896.864-2.235 0-3.327-2.032-1.067-2.032-1.067-5.258 0-3.099.787-7.061.813-3.962 2.362-6.807 1.575-2.845 3.734-2.845 1.219 0 1.905 1.143.711 1.118.711 3.226 0 3.023-1.676 7.01-1.676 3.988-4.547 7.899.178 1.041.584 1.499.406.432 1.067.432 1.041 0 1.829-.584.787-.61 2.007-2.057.305-.356.686-.356zm-3.124-15.697q-.584 0-1.321 2.108-.737 2.108-1.295 5.232-.559 3.124-.61 5.994 1.803-2.972 2.87-5.944 1.067-2.997 1.067-5.461 0-1.93-.711-1.93z"/><path d="M125.172 76.654c-1.101 0-2.091.297-2.972.889-.864.593-1.541 1.397-2.032 2.413a7.27 7.27 0 0 0-.736 3.251c0 1.659.449 2.98 1.346 3.962.897.965 2.159 1.448 3.785 1.448 1.067 0 1.904-.282 2.747-.576l3.936-1.362v-2.918l-4.506 1.963c-.535.192-1.102.353-1.796.353-.965 0-1.651-.389-2.058-1.168 2.015-.491 3.438-1.152 4.267-1.981.847-.847 1.27-1.854 1.27-3.023 0-.999-.297-1.786-.889-2.362-.593-.593-1.38-.889-2.362-.889zm-.431 2.489c.305 0 .542.102.711.305.186.186.28.44.28.762 0 .627-.288 1.176-.864 1.651s-1.363.83-2.362 1.067v-.051c0-1.033.212-1.914.635-2.642.44-.728.974-1.092 1.6-1.092z"/></g><path d="M150.358 62.093c-1.081.021-2.286.336-3.498 1.173-.345.238-1.456 1.271-1.703 3.225-.525-1.213-1.528-2.467-3.318-3.246-.551-.24-3.317-.96-6.09 2.128-.855.952 1.439 1.478 1.992 1.251 1.321-.544 3.153-1.066 3.91-.637.391.222 1.358 2.927 2.724 3.689l.118.063H136.4c-2.855 0-5.154 2.299-5.154 5.155v11.818c0 2.855 2.299 5.154 5.154 5.154h20.783c2.855 0 5.154-2.299 5.154-5.154V74.893c0-2.855-2.299-5.155-5.154-5.155h-10.589c.477-.337.925-.911.975-1.209.234-1.409.757-3.241 1.52-3.658.394-.215 3.202.39 4.571-.369.297-.165.638-.36.739-.712.105-.367-1.665-1.744-4.042-1.698zm-13.999 9.392h20.864a3.36 3.36 0 0 1 3.365 3.365v11.895a3.36 3.36 0 0 1-3.365 3.365H136.36a3.36 3.36 0 0 1-3.365-3.365V74.85a3.36 3.36 0 0 1 3.365-3.365z" fill="#fbdd11"/><path d="M144.832 75.577q-1.438.061-3.504.221l.111 5.114-.283 7.757-2.741.221-.148-12.982q-1.07.025-1.979.074-.897.049-1.524.049l.221-2.668q4.254-.553 9.528-.553zm4.251 6.7l-2.115-8.667 3.123-.897 1.906 9.441.504 3.995.713-.074q0 0 1.254-6.503.615-3.307 1.18-6.86l3.172.799-.455 1.992q-.098.455-.283 1.217-1.66 6.749-1.967 7.905 0 0-.541 1.955-.504 1.844-.664 2.09 0 0-2.188.135-1.045.061-2.115.061z" fill="#7c1ced"/></g></svg>