<?xml version="1.0" encoding="UTF-8" standalone="no"?>
<!DOCTYPE svg PUBLIC "-//W3C//DTD SVG 1.1//EN" "http://www.w3.org/Graphics/SVG/1.1/DTD/svg11.dtd">
<svg width="100%" height="100%" viewBox="0 0 375 137" version="1.1" xmlns="http://www.w3.org/2000/svg" xmlns:xlink="http://www.w3.org/1999/xlink" xml:space="preserve" xmlns:serif="http://www.serif.com/" style="fill-rule:evenodd;clip-rule:evenodd;stroke-linejoin:round;stroke-miterlimit:2;">
    <g id="Layer-1" serif:id="Layer 1" transform="matrix(1,0,0,1,-163.672,-147.521)">
        <g>
            <g>
                <g transform="matrix(1.032,0,0,1,152.21,147.918)">
                    <path d="M370.628,46.054C370.628,38.391 364.599,32.169 357.173,32.169L284.718,32.169C277.293,32.169 271.264,38.391 271.264,46.054L271.264,88.236C271.264,95.9 277.293,102.121 284.718,102.121L357.173,102.121C364.599,102.121 370.628,95.9 370.628,88.236L370.628,46.054Z" style="fill:white;"/>
                </g>
                <g id="rect4493" transform="matrix(0.334637,0,0,0.334637,-43.3355,-75.0887)">
                    <path d="M1610.88,665.239C1599.31,665.463 1586.39,668.834 1573.4,677.807C1569.71,680.359 1557.8,691.42 1555.16,712.36C1549.54,699.367 1538.79,685.933 1519.61,677.58C1513.71,675.01 1484.08,667.298 1454.37,700.379C1445.21,710.577 1469.79,716.214 1475.7,713.777C1489.85,707.952 1509.49,702.355 1517.59,706.951C1521.78,709.324 1532.14,738.304 1546.78,746.475C1547.19,746.702 1547.62,746.923 1548.04,747.151L1461.34,747.151C1430.75,747.151 1406.12,771.785 1406.12,802.376L1406.12,928.989C1406.12,959.58 1430.75,984.209 1461.34,984.209L1684,984.209C1714.59,984.209 1739.22,959.58 1739.22,928.989L1739.22,802.376C1739.22,771.785 1714.59,747.151 1684,747.151L1570.55,747.151C1575.67,743.544 1580.47,737.393 1581,734.201C1583.51,719.109 1589.11,699.478 1597.29,695.014C1601.51,692.712 1631.6,699.188 1646.26,691.061C1649.45,689.295 1653.1,687.206 1654.18,683.432C1655.31,679.502 1636.35,664.748 1610.88,665.239ZM1460.9,765.864L1684.43,765.864C1704.41,765.864 1720.49,781.944 1720.49,801.917L1720.49,929.354C1720.49,949.327 1704.41,965.402 1684.43,965.402L1460.9,965.402C1440.93,965.402 1424.85,949.327 1424.85,929.354L1424.85,801.917C1424.85,781.944 1440.93,765.864 1460.9,765.864Z" style="fill:rgb(251,221,17);fill-rule:nonzero;"/>
                </g>
            </g>
            <g id="g5161" transform="matrix(1.26477,0,0,1.26477,-43.3355,-75.0887)">
                <path id="path4529" d="M213.712,195.616C213.712,197.056 213.4,198.136 212.776,198.856C212.2,199.576 211.24,199.936 209.896,199.936C209.8,200.944 209.584,202.696 209.248,205.192C208.768,208.552 208.504,210.424 208.456,210.808C204.184,242.632 195.28,258.544 181.744,258.544C177.76,258.544 174.64,257.416 172.384,255.16C170.176,252.904 169.072,250.072 169.072,246.664C169.072,240.568 171.664,235.192 176.848,230.536C182.032,225.832 188.848,221.944 197.296,218.872C197.824,215.464 198.232,212.416 198.52,209.728L199.816,198.856C196.936,198.568 194.248,198.424 191.752,198.424C185.08,198.424 180.16,199.072 176.992,200.368C173.824,201.664 172.24,203.776 172.24,206.704C172.24,208.144 172.72,209.704 173.68,211.384C173.968,211.864 174.112,212.368 174.112,212.896C174.112,213.904 173.584,214.816 172.528,215.632C171.52,216.4 170.416,216.784 169.216,216.784C167.68,216.784 166.504,216.136 165.688,214.84C164.344,212.632 163.672,210.064 163.672,207.136C163.672,195.616 173.752,189.856 193.912,189.856C199.768,189.856 205,190.432 209.608,191.584C212.344,192.256 213.712,193.6 213.712,195.616ZM182.68,250.84C185.032,250.84 187.384,249.064 189.736,245.512C192.088,241.96 194.152,235.744 195.928,226.864C184.216,232 178.36,238.288 178.36,245.728C178.36,247.36 178.744,248.632 179.512,249.544C180.28,250.408 181.336,250.84 182.68,250.84Z" style="fill:rgb(76,191,75);fill-rule:nonzero;"/>
                <path id="path4531" d="M219.985,251.2C217.825,251.2 216.049,250.216 214.657,248.248C213.313,246.232 212.641,243.736 212.641,240.76C212.641,237.16 212.881,233.872 213.361,230.896C213.841,227.872 214.633,224.68 215.737,221.32C216.217,219.88 216.889,218.848 217.753,218.224C218.617,217.6 219.985,217.288 221.857,217.288C222.913,217.288 223.633,217.456 224.017,217.792C224.449,218.128 224.665,218.632 224.665,219.304C224.665,219.688 224.401,220.984 223.873,223.192C223.393,224.968 223.009,226.576 222.721,228.016C221.761,233.056 221.281,236.416 221.281,238.096C221.281,239.104 221.401,239.824 221.641,240.256C221.881,240.64 222.265,240.832 222.793,240.832C223.513,240.832 224.401,240.112 225.457,238.672C226.561,237.232 227.713,235.048 228.913,232.12C230.161,229.192 231.361,225.592 232.513,221.32C232.897,219.88 233.473,218.848 234.241,218.224C235.057,217.6 236.257,217.288 237.841,217.288C238.945,217.288 239.713,217.432 240.145,217.72C240.577,217.96 240.793,218.44 240.793,219.16C240.793,220.36 240.193,223.648 238.993,229.024C237.649,235.168 236.977,238.96 236.977,240.4C236.977,241.312 237.169,242.032 237.553,242.56C237.937,243.04 238.441,243.28 239.065,243.28C240.025,243.28 241.153,242.704 242.449,241.552C243.793,240.352 245.569,238.432 247.777,235.792C248.353,235.12 249.001,234.784 249.721,234.784C250.345,234.784 250.825,235.072 251.161,235.648C251.545,236.224 251.737,237.016 251.737,238.024C251.737,239.944 251.281,241.432 250.369,242.488C248.305,245.032 246.073,247.12 243.673,248.752C241.321,250.384 238.633,251.2 235.609,251.2C233.305,251.2 231.601,250.312 230.497,248.536C229.441,246.76 228.913,244.264 228.913,241.048C228.097,244.312 226.873,246.832 225.241,248.608C223.609,250.336 221.857,251.2 219.985,251.2Z" style="fill:rgb(76,191,75);fill-rule:nonzero;"/>
                <path id="path4533" d="M251.081,251.2C249.257,251.2 247.961,250.24 247.193,248.32C246.473,246.4 246.113,243.328 246.113,239.104C246.113,232.864 247.001,226.936 248.777,221.32C249.209,219.928 249.905,218.92 250.865,218.296C251.873,217.624 253.265,217.288 255.041,217.288C256.001,217.288 256.673,217.408 257.057,217.648C257.441,217.888 257.633,218.344 257.633,219.016C257.633,219.784 257.273,221.512 256.553,224.2C256.073,226.12 255.689,227.8 255.401,229.24C255.113,230.68 254.873,232.456 254.681,234.568C256.265,230.44 258.041,227.08 260.009,224.488C261.977,221.896 263.897,220.048 265.769,218.944C267.689,217.84 269.441,217.288 271.025,217.288C274.145,217.288 275.705,218.848 275.705,221.968C275.705,223.84 275.177,227.224 274.121,232.12C273.209,236.296 272.753,239.056 272.753,240.4C272.753,242.32 273.449,243.28 274.841,243.28C275.801,243.28 276.929,242.704 278.225,241.552C279.569,240.352 281.345,238.432 283.553,235.792C284.129,235.12 284.777,234.784 285.497,234.784C286.121,234.784 286.601,235.072 286.937,235.648C287.321,236.224 287.513,237.016 287.513,238.024C287.513,239.944 287.057,241.432 286.145,242.488C284.081,245.032 281.849,247.12 279.449,248.752C277.097,250.384 274.409,251.2 271.385,251.2C268.937,251.2 267.089,250.504 265.841,249.112C264.593,247.672 263.969,245.608 263.969,242.92C263.969,241.576 264.305,239.176 264.977,235.72C265.601,232.696 265.913,230.608 265.913,229.456C265.913,228.688 265.649,228.304 265.121,228.304C264.497,228.304 263.609,229.12 262.457,230.752C261.353,232.336 260.201,234.448 259.001,237.088C257.849,239.728 256.913,242.512 256.193,245.44C255.665,247.696 255.041,249.232 254.321,250.048C253.649,250.816 252.569,251.2 251.081,251.2Z" style="fill:rgb(76,191,75);fill-rule:nonzero;"/>
                <path id="path4535" d="M318.552,234.928C319.176,234.928 319.656,235.24 319.992,235.864C320.376,236.44 320.568,237.184 320.568,238.096C320.568,239.2 320.4,240.064 320.064,240.688C319.728,241.312 319.2,241.864 318.48,242.344C314.352,245.128 311.328,247.192 309.408,248.536L304.8,251.632C302.976,261.568 300.576,269.368 297.6,275.032C294.672,280.744 290.928,283.6 286.368,283.6C283.92,283.6 281.928,282.832 280.392,281.296C278.856,279.808 278.088,277.84 278.088,275.392C278.088,271.984 279.432,268.312 282.12,264.376C284.808,260.488 289.848,255.688 297.24,249.976L297.672,247.168C296.856,248.464 295.776,249.472 294.432,250.192C293.136,250.864 291.84,251.2 290.544,251.2C287.568,251.2 285.192,250.12 283.416,247.96C281.64,245.8 280.752,242.968 280.752,239.464C280.752,235.624 281.64,232 283.416,228.592C285.192,225.136 287.544,222.376 290.472,220.312C293.448,218.2 296.592,217.144 299.904,217.144C300.96,217.144 301.656,217.36 301.992,217.792C302.376,218.176 302.688,218.896 302.928,219.952C303.84,219.76 304.896,219.664 306.096,219.664C307.296,219.664 308.136,219.856 308.616,220.24C309.144,220.576 309.408,221.272 309.408,222.328C309.408,222.904 309.384,223.36 309.336,223.696C309.144,225.184 308.544,228.952 307.536,235C307.344,236.152 307.128,237.424 306.888,238.816C306.696,240.16 306.48,241.6 306.24,243.136C309.936,240.256 313.488,237.712 316.896,235.504C317.52,235.12 318.072,234.928 318.552,234.928ZM293.136,243.928C294.24,243.928 295.296,243.256 296.304,241.912C297.312,240.568 298.032,238.648 298.464,236.152L300.768,223.84C298.8,223.888 296.976,224.656 295.296,226.144C293.616,227.584 292.272,229.504 291.264,231.904C290.256,234.304 289.752,236.848 289.752,239.536C289.752,241.024 290.04,242.128 290.616,242.848C291.24,243.568 292.08,243.928 293.136,243.928ZM287.16,276.616C288.36,276.616 289.704,275.176 291.192,272.296C292.728,269.416 294.192,264.832 295.584,258.544C291.888,261.712 289.224,264.568 287.592,267.112C285.96,269.656 285.144,271.888 285.144,273.808C285.144,274.624 285.288,275.296 285.576,275.824C285.912,276.352 286.44,276.616 287.16,276.616Z" style="fill:rgb(76,191,75);fill-rule:nonzero;"/>
                <path id="path4537" d="M343.429,234.784C344.053,234.784 344.533,235.072 344.869,235.648C345.253,236.224 345.445,237.016 345.445,238.024C345.445,239.944 344.989,241.432 344.077,242.488C342.013,245.032 339.757,247.12 337.309,248.752C334.909,250.384 332.173,251.2 329.101,251.2C324.877,251.2 321.733,249.28 319.669,245.44C317.653,241.6 316.645,236.632 316.645,230.536C316.645,224.68 317.389,218.008 318.877,210.52C320.413,203.032 322.645,196.6 325.573,191.224C328.549,185.848 332.077,183.16 336.157,183.16C338.461,183.16 340.261,184.24 341.557,186.4C342.901,188.512 343.573,191.56 343.573,195.544C343.573,201.256 341.989,207.88 338.821,215.416C335.653,222.952 331.357,230.416 325.933,237.808C326.269,239.776 326.821,241.192 327.589,242.056C328.357,242.872 329.365,243.28 330.613,243.28C332.581,243.28 334.309,242.728 335.797,241.624C337.285,240.472 339.181,238.528 341.485,235.792C342.061,235.12 342.709,234.784 343.429,234.784ZM334.573,190.288C333.469,190.288 332.221,192.28 330.829,196.264C329.437,200.248 328.213,205.192 327.157,211.096C326.101,217 325.525,222.664 325.429,228.088C328.837,222.472 331.549,216.856 333.565,211.24C335.581,205.576 336.589,200.416 336.589,195.76C336.589,192.112 335.917,190.288 334.573,190.288Z" style="fill:rgb(76,191,75);fill-rule:nonzero;"/>
                <g id="path4539" transform="matrix(0.264583,0,0,0.264583,0,0)">
                    <path d="M1341.04,821.244C1329.25,821.244 1318.64,824.423 1309.2,830.773C1299.95,837.122 1292.69,845.737 1287.43,856.622C1282.17,867.326 1279.54,878.939 1279.54,891.457C1279.54,909.236 1284.35,923.383 1293.97,933.905C1303.58,944.246 1317.1,949.418 1334.52,949.418C1345.94,949.418 1354.92,946.4 1363.95,943.245C1369.32,941.421 1389.67,935.091 1406.12,928.651L1406.12,897.392C1377.56,910.586 1365.12,915.791 1357.84,918.425C1352.11,920.48 1346.03,922.207 1338.6,922.207C1328.25,922.207 1320.9,918.034 1316.55,909.689C1338.14,904.428 1353.38,897.352 1362.27,888.462C1371.34,879.391 1375.88,868.597 1375.88,856.08C1375.88,845.376 1372.7,836.941 1366.35,830.773C1360,824.423 1351.56,821.244 1341.04,821.244ZM1336.42,847.913C1339.68,847.913 1342.22,849.003 1344.04,851.18C1346.03,853.175 1347.03,855.899 1347.03,859.346C1347.03,866.059 1343.94,871.95 1337.78,877.029C1331.61,882.109 1323.17,885.922 1312.47,888.462L1312.47,887.92C1312.47,876.853 1314.74,867.418 1319.27,859.617C1323.99,851.816 1329.71,847.913 1336.42,847.913Z" style="fill:rgb(76,191,75);fill-rule:nonzero;"/>
                </g>
            </g>
        </g>
        <g id="text4491" transform="matrix(0.902648,0,0,0.902648,91.3865,16.4604)">
            <path id="path4542" d="M425.997,198.758C422.188,198.92 417.55,199.213 412.081,199.636L412.52,219.949L411.397,250.759L400.509,251.638L399.923,200.076C397.091,200.141 394.47,200.239 392.061,200.369C389.685,200.499 387.667,200.564 386.007,200.564L386.885,189.968C398.148,188.504 410.762,187.771 424.727,187.771L425.997,198.758Z" style="fill:rgb(124,28,237);fill-rule:nonzero;"/>
            <path id="path4544" d="M442.882,225.369L434.483,190.945L446.885,187.381L454.454,224.881L456.456,240.75L459.288,240.457C459.288,240.457 460.948,231.847 464.268,214.627C465.896,205.87 467.458,196.788 468.956,187.381L481.553,190.554L479.747,198.465C479.486,199.669 479.112,201.28 478.624,203.299C474.229,221.17 471.625,231.635 470.811,234.695C470.811,234.695 470.095,237.283 468.663,242.459C467.328,247.342 466.449,250.108 466.026,250.759C466.026,250.759 463.129,250.939 457.335,251.297C454.568,251.459 451.768,251.541 448.936,251.541L442.882,225.369Z" style="fill:rgb(124,28,237);fill-rule:nonzero;"/>
        </g>
    </g>
</svg>
