<?xml version="1.0" encoding="UTF-8" standalone="no"?>
<!-- Created with Inkscape (http://www.inkscape.org/) -->

<svg
   xmlns:dc="http://purl.org/dc/elements/1.1/"
   xmlns:cc="http://creativecommons.org/ns#"
   xmlns:rdf="http://www.w3.org/1999/02/22-rdf-syntax-ns#"
   xmlns:svg="http://www.w3.org/2000/svg"
   xmlns="http://www.w3.org/2000/svg"
   xmlns:sodipodi="http://sodipodi.sourceforge.net/DTD/sodipodi-0.dtd"
   xmlns:inkscape="http://www.inkscape.org/namespaces/inkscape"
   width="500"
   height="500"
   viewBox="0 0 132.29167 132.29167"
   version="1.1"
   id="svg8"
   inkscape:version="0.92.1 r15371"
   sodipodi:docname="mark.svg"
   inkscape:export-filename="C:\Users\Gabriel\Development\jungletv\app\public\assets\brand\mark.png"
   inkscape:export-xdpi="49.151997"
   inkscape:export-ydpi="49.151997">
  <defs
     id="defs2" />
  <sodipodi:namedview
     id="base"
     pagecolor="#ffffff"
     bordercolor="#666666"
     borderopacity="1.0"
     inkscape:pageopacity="0.0"
     inkscape:pageshadow="2"
     inkscape:zoom="1.4"
     inkscape:cx="91.71244"
     inkscape:cy="147.98663"
     inkscape:document-units="mm"
     inkscape:current-layer="layer1"
     showgrid="false"
     fit-margin-top="0"
     fit-margin-left="0"
     fit-margin-right="0"
     fit-margin-bottom="0"
     inkscape:window-width="2560"
     inkscape:window-height="1017"
     inkscape:window-x="1912"
     inkscape:window-y="-8"
     inkscape:window-maximized="1"
     units="px" />
  <metadata
     id="metadata5">
    <rdf:RDF>
      <cc:Work
         rdf:about="">
        <dc:format>image/svg+xml</dc:format>
        <dc:type
           rdf:resource="http://purl.org/dc/dcmitype/StillImage" />
        <dc:title />
      </cc:Work>
    </rdf:RDF>
  </metadata>
  <g
     inkscape:label="Layer 1"
     inkscape:groupmode="layer"
     id="layer1"
     transform="translate(-150.70785,42.592984)">
    <g
       id="g5756">
      <rect
         rx="24.686541"
         y="-4.7953668"
         x="154.48761"
         height="88.824409"
         width="124.54315"
         id="rect5748"
         style="opacity:1;fill:#ffffff;fill-opacity:1;stroke:none;stroke-width:0.2;stroke-miterlimit:4;stroke-dasharray:none;stroke-opacity:1" />
      <g
         transform="matrix(4.2548952,0,0,4.2548952,-407.729,-303.98243)"
         id="g5167"
         style="stroke-width:0.23502342">
        <path
           style="opacity:1;fill:#fbdd11;fill-opacity:1;stroke:none;stroke-width:0.17765549;stroke-miterlimit:4;stroke-dasharray:none;stroke-opacity:1"
           d="m 568.2832,234.68164 c -4.08378,0.0789 -8.64096,1.26831 -13.22265,4.43359 -1.30326,0.90043 -5.50303,4.80239 -6.43555,12.18946 -1.98297,-4.58341 -5.77344,-9.32286 -12.53906,-12.26953 -2.0818,-0.9067 -12.5374,-3.62723 -23.01758,8.04296 -3.23112,3.59757 5.43965,5.58617 7.52734,4.72657 4.99102,-2.05498 11.91772,-4.02954 14.77735,-2.40821 1.47636,0.83724 5.13358,11.06094 10.29687,13.94336 0.14325,0.0801 0.29633,0.15812 0.44531,0.23828 h -30.58789 c -10.7921,0 -19.48046,8.69033 -19.48046,19.48243 v 44.66601 c 0,10.79211 8.68836,19.48047 19.48046,19.48047 h 78.55078 c 10.79211,0 19.48047,-8.68836 19.48047,-19.48047 v -44.66601 c 0,-10.7921 -8.68836,-19.48243 -19.48047,-19.48243 h -40.02148 c 1.80393,-1.27243 3.49793,-3.44223 3.68555,-4.56835 0.88543,-5.32409 2.8605,-12.24954 5.74609,-13.82422 1.49019,-0.81231 12.10345,1.47246 17.27539,-1.39453 1.12411,-0.62291 2.41213,-1.35989 2.79492,-2.69141 0.39855,-1.38649 -6.29107,-6.59143 -15.27539,-6.41797 z m -52.9082,35.49805 h 78.85547 c 7.04611,0 12.71875,5.67264 12.71875,12.71875 v 44.95703 c 0,7.04611 -5.67264,12.7168 -12.71875,12.7168 H 515.375 c -7.04611,0 -12.71875,-5.67069 -12.71875,-12.7168 v -44.95703 c 0,-7.04611 5.67264,-12.71875 12.71875,-12.71875 z"
           transform="scale(0.26458333)"
           id="rect4493"
           inkscape:connector-curvature="0" />
        <g
           aria-label="TV"
           style="font-style:normal;font-variant:normal;font-weight:normal;font-stretch:normal;font-size:25.39999962px;line-height:1.25;font-family:Pacifico;-inkscape-font-specification:Pacifico;letter-spacing:1.32291663px;word-spacing:0px;fill:#7c1ced;fill-opacity:1;stroke:none;stroke-width:0.08712976"
           id="text4491"
           transform="matrix(0.71368582,0,0,0.71368582,37.577515,25.53546)">
          <path
             d="m 150.2822,70.117246 q -2.01538,0.08613 -4.90926,0.310058 l 0.15503,7.165799 -0.39618,10.869276 -3.84128,0.310059 -0.20671,-18.190105 q -1.49862,0.03445 -2.7733,0.103353 -1.25746,0.0689 -2.13596,0.0689 l 0.31006,-3.737928 q 5.96001,-0.775147 13.34974,-0.775147 z"
             style="font-style:normal;font-variant:normal;font-weight:normal;font-stretch:normal;font-size:35.27777863px;font-family:'Passero One';-inkscape-font-specification:'Passero One';letter-spacing:1.32291663px;fill:#7c1ced;fill-opacity:1;stroke-width:0.08712976"
             id="path4542"
             inkscape:connector-curvature="0" />
          <path
             d="m 156.23878,79.505131 -2.96279,-12.143962 4.37527,-1.25746 2.66995,13.229167 0.70625,5.59828 0.99908,-0.103352 q 0,0 1.75699,-9.112278 0.86128,-4.633654 1.65365,-9.611817 l 4.44417,1.119656 -0.63734,2.790528 q -0.1378,0.637342 -0.39618,1.705322 -2.32544,9.456787 -2.75608,11.075982 0,0 -0.75792,2.738851 -0.70625,2.583822 -0.93018,2.928331 0,0 -3.06613,0.189481 -1.46417,0.08613 -2.96279,0.08613 z"
             style="font-style:normal;font-variant:normal;font-weight:normal;font-stretch:normal;font-size:35.27777863px;font-family:'Passero One';-inkscape-font-specification:'Passero One';letter-spacing:1.32291663px;fill:#7c1ced;fill-opacity:1;stroke-width:0.08712976"
             id="path4544"
             inkscape:connector-curvature="0" />
        </g>
      </g>
    </g>
  </g>
</svg>
