<svg xmlns="http://www.w3.org/2000/svg" width="748.181" height="558.215" fill-rule="evenodd" stroke-linejoin="round" stroke-miterlimit="2" xmlns:v="https://vecta.io/nano"><path d="M313.839 46.542l.002-.024 1.487.021 41.99.012 9.695.04 12.828-.013.002.109 14.591.102c103.019 4.306 178.935 12.254 227.748 23.844 8.116 2.087 17.507 8.464 28.173 19.13 20.173 20.173 31.13 36.347 32.869 48.52s2.608 29.333 2.608 51.477-2.898 48.636-8.695 79.476-15.188 61.447-28.173 91.823c-5.102 12.058-16.695 19.478-34.782 22.261l-123.127 21.912-4.173 97.041-77.911 7.652-6.261-328.339 89.041-14.26v69.911l-2.783 97.041c8.58-1.392 16.696-2.899 24.348-4.522l22.608-5.565c7.42-1.855 14.724-3.942 21.912-6.261l22.956-8c10.898-34.549 16.347-76.751 16.347-126.605 0-18.55-.927-30.259-2.782-35.129-30.608-9.739-86.491-15.768-167.648-18.086l-52.443-1.644s-7.403 65.612-19.904 130.087c-31.98 168.757-88.53 253.144-169.645 253.144-26.976 0-48.021-7.638-63.135-22.913s-22.67-34.452-22.67-57.529c0-41.277 17.551-77.76 52.653-109.45s81.255-57.934 138.458-78.735c3.575-23.077 6.338-43.715 8.288-61.916l8.776-73.617c-19.502-1.95-37.703-2.925-54.603-2.925-45.178 0-78.492 4.388-99.944 13.163s-32.176 23.076-32.176 42.903c0 9.75 3.25 20.313 9.75 31.689 1.95 3.25 2.925 6.663 2.925 10.238 0 6.825-3.494 12.919-10.482 18.282s-14.544 8.044-22.67 8.044c-10.4 0-18.363-4.387-23.888-13.163-9.101-14.951-13.651-32.339-13.651-52.165 0-78.005 68.254-117.007 204.761-117.007l46.73-.054zm-122.784 412.99c15.926 0 31.852-12.026 47.778-36.077s29.901-66.141 41.927-126.27c-79.304 34.777-118.957 77.355-118.957 127.732 0 11.051 2.601 19.583 7.801 25.596s12.351 9.019 21.451 9.019z" fill="url(#A)" fill-rule="nonzero" filter="url(#B)"/><defs><linearGradient id="A" x1="360.09" y1="86.918" x2="398.09" y2="86.918" gradientUnits="userSpaceOnUse"><stop offset="0" stop-color="#4cbf4b"/><stop offset="1" stop-color="#7c1ced"/></linearGradient><filter id="B" color-interpolation-filters="sRGB"><feFlood flood-opacity="1" flood-color="#fbdd11"/><feComposite in2="SourceGraphic" operator="in"/><feGaussianBlur stdDeviation="10"/><feOffset/><feComposite in="SourceGraphic"/></filter></defs></svg>